<?xml version="1.0" encoding="utf-8"?>
<!-- Generator: Adobe Illustrator 25.2.1, SVG Export Plug-In . SVG Version: 6.00 Build 0)  -->
<svg version="1.1" id="Layer_1" xmlns="http://www.w3.org/2000/svg" xmlns:xlink="http://www.w3.org/1999/xlink" x="0px" y="0px"
	 viewBox="0 0 100 100" style="enable-background:new 0 0 100 100;" xml:space="preserve">
<style type="text/css">
	.st0{fill:#999999;}
</style>
<g>
	<path class="st0" d="M45.87,34.74v-1.8c0-1-0.8-1.79-1.8-1.79c-1,0-1.8,0.8-1.8,1.79v1.8h-3.59v-1.8c0-1-0.8-1.79-1.8-1.79
		c-1,0-1.8,0.8-1.8,1.79v1.8h-3.59v-1.8c0-1-0.8-1.79-1.8-1.79c-1,0-1.79,0.8-1.79,1.79v1.8h-3.59v-1.8c0-1-0.8-1.79-1.8-1.79
		c-1,0-1.8,0.8-1.8,1.79l-0.01,1.8c-2.97,0-5.38,2.41-5.38,5.39v23.34c0,2.97,2.41,5.39,5.38,5.39h25.15c2.97,0,5.38-2.41,5.38-5.39
		V40.13C51.26,37.15,48.85,34.74,45.87,34.74z M47.66,63.46c0,0.99-0.8,1.8-1.79,1.8H20.73c-0.98,0-1.79-0.8-1.79-1.8V47.31h28.72
		V63.46z M47.66,43.72H18.94v-3.59c0-0.99,0.8-1.8,1.8-1.79c0,1,0.8,1.79,1.8,1.79c1,0,1.8-0.8,1.8-1.8l3.59,0
		c0,1,0.8,1.79,1.79,1.79c1,0,1.8-0.8,1.8-1.8l3.59,0c0,1,0.8,1.79,1.8,1.79c1,0,1.8-0.8,1.8-1.8l3.59,0c0,1,0.8,1.79,1.8,1.79
		c1,0,1.8-0.8,1.8-1.8c0.98,0,1.79,0.8,1.79,1.8V43.72z"/>
	<path class="st0" d="M84.05,48.3c-0.38-0.39-0.89-0.6-1.44-0.6c0,0,0,0,0,0c-0.54,0-1.06,0.21-1.44,0.6l-6.87,6.87V39.92
		c0-1.08-0.88-1.97-1.97-1.97c-1.09,0-1.97,0.88-1.97,1.97v15.25l-6.87-6.87c-0.8-0.79-2.09-0.79-2.88,0
		c-0.79,0.79-0.79,2.09,0,2.88l10.28,10.28c0.4,0.4,0.92,0.59,1.44,0.59c0.52,0,1.04-0.2,1.44-0.59l10.28-10.28
		C84.85,50.38,84.85,49.09,84.05,48.3z"/>
</g>
</svg>
